<svg width="352" height="80" viewBox="0 0 352 80" fill="none" xmlns="http://www.w3.org/2000/svg">
<g clip-path="url(#clip0_8905_69806)">
<path d="M79.7073 18.3195V61.7537H89.1341V18.3195H79.7073Z" fill="#00433D"/>
<path d="M119.693 17.8268C112.483 17.8268 107.4 20.9415 104.615 26.8415L103.468 18.3195H95.6829V61.7537H105.351V40.2805C105.351 26.8488 109.659 27.2415 119.693 27.2512C120.102 27.2512 121.332 27.3049 121.332 27.3049V17.8268H119.693Z" fill="#00433D"/>
<path d="M149.929 17.0073C143.046 17.0073 137.393 20.3683 134.524 25.4488L133.541 18.3195H125.756V79.8512H135.507V55.6878C138.459 60.1951 143.62 62.9829 149.849 62.9829C161.402 62.9829 169.517 53.4756 169.517 39.7903C169.517 26.1049 161.402 17.0073 149.929 17.0073ZM147.717 54.7049C137.249 54.7049 135.507 52.8024 135.507 39.5439C135.507 26.2854 138.627 25.3073 147.637 25.3073C157.89 25.3073 159.6 27.0098 159.6 39.7903C159.6 52.5707 157.89 54.7049 147.717 54.7049Z" fill="#00433D"/>
<path d="M197.217 17.0097C192.954 17.0097 189.066 18.2146 186.146 20.4244V27.4829C187.259 26.3488 189.598 25.3073 192.805 25.3073C200.271 25.3073 202.795 27.5098 202.871 38.0219V61.7585H212.541V32.8439C212.541 23.0927 206.478 17.0073 197.217 17.0073V17.0097ZM183.622 37.4951H183.615V22.8463H183.612V0.148773H173.941V61.761H183.612V41.6463C183.612 40.2024 183.602 38.8122 183.622 37.4951Z" fill="#00433D"/>
<path d="M239.256 17.0073C226.554 17.0073 216.966 25.4488 216.966 39.6268C216.966 53.0658 225.161 62.9829 239.256 62.9829C252.205 62.9829 261.466 54.2951 261.466 39.6268C261.466 26.8415 253.271 17.0073 239.256 17.0073ZM239.256 54.7049C229.302 54.7049 226.8 53.6317 226.8 39.6268C226.8 25.6219 229.334 25.3049 239.256 25.3049C249.178 25.3049 251.632 26.3219 251.632 39.6268C251.632 52.9317 249.229 54.7049 239.256 54.7049Z" fill="#00433D"/>
<path d="M22.0561 8.47561H30.7878V0.314636H21.4024C12.4244 0.314636 7.60976 4.72195 7.60976 12.8829V18.3195H0.019516V25.9927H7.60976V61.7293H17.2415V25.9927H29.8098V18.3195H17.2415V13.5366C17.2415 10.2707 18.9537 8.47561 22.0561 8.47561Z" fill="#00433D"/>
<path d="M89.1341 0.290253H79.7244V9.94391H89.1341V0.290253Z" fill="#00433D"/>
<path d="M289.163 17.0098C282.69 17.0098 277.2 20.2049 274.495 24.7122L273.676 18.3195H265.89V61.7537H275.561V37.0025C275.561 25.2634 281 25.3073 285.483 25.3073C291.544 25.3073 294.82 27.1537 294.82 37.4951V61.7537H304.488V32.9903C304.488 23.2366 298.424 17.0098 289.163 17.0098Z" fill="#00433D"/>
<path d="M318.583 42.0024H351.2V39.7073C350.954 25.6122 342.759 17.0073 330.466 17.0073C318.173 17.0073 308.912 25.8585 308.912 40.2C308.912 53.4756 318.01 62.9829 331.285 62.9829C341.529 62.9829 348.822 57.3268 351.037 47.9854H341.612C340.583 53.5366 337.893 54.7024 330.578 54.7024C327.593 54.7024 325.3 54.5659 323.561 53.9781H323.559C320.063 52.8 318.79 49.7707 318.583 42.122C318.583 42.1146 318.583 42.1098 318.583 42.1049V42.0024ZM318.685 35.3049C319.278 25.6 323.22 25.6 329.3 25.3195C329.424 25.3146 330.198 25.3 330.466 25.3073C337.107 25.5122 340.729 25.9122 341.202 35.3049H318.685Z" fill="#00433D"/>
<path d="M30.8049 49.6829C30.8878 39.5293 40.9585 37.4 49.3951 36.4171C55.9463 35.6805 61.1024 35.4268 60.861 31.9951C60.5488 27.5683 57.9171 25.4073 51.9341 25.3073C46.1488 25.2098 42.5854 25.9659 41.5341 32.5683H31.7902C32.6902 23.3976 40.8805 17.0098 52.1 17.0098C63.3195 17.0098 70.2805 23.3976 70.2805 32.6512V52.3049C70.2805 53.5342 70.9366 54.1878 72.4098 54.1878H74.7854V61.722H70.2C65.778 61.722 63.0756 59.9195 62.339 56.6439C62.1756 56.2342 62.0122 55.661 61.9293 55.1707C59.3902 59.839 54.6415 62.9829 47.2707 62.9829C37.2805 62.9829 30.7293 57.7903 30.8098 49.6829H30.8049ZM61.3293 45.4342C61.4976 42.8854 61.4902 39.2268 61.4902 39.2268C59.8512 41.7659 55.0439 42.4781 50.4561 43.0512C45.0512 43.7073 40.5463 44.4439 40.5463 49.0293C40.5463 52.7951 43.4805 54.8732 49.2268 54.7049C55.9927 54.5073 60.7024 54.861 61.3268 45.4342H61.3293Z" fill="#00433D"/>
</g>
<defs>
<clipPath id="clip0_8905_69806">
<rect width="351.22" height="80" fill="white"/>
</clipPath>
</defs>
</svg>
